<mxfile host="app.diagrams.net" modified="2023-12-14T12:42:43.730Z" agent="Mozilla/5.0 (Windows NT 10.0; Win64; x64) AppleWebKit/537.36 (KHTML, like Gecko) Chrome/120.0.0.0 Safari/537.36" etag="rCjAo6PJbqfpgPAra7Wd" version="22.1.8" type="device">
  <diagram name="Page-1" id="I447ZJJQAIOiNH9bcjD-">
    <mxGraphModel dx="564" dy="1338" grid="1" gridSize="10" guides="1" tooltips="1" connect="1" arrows="1" fold="1" page="1" pageScale="1" pageWidth="850" pageHeight="1100" math="0" shadow="0">
      <root>
        <mxCell id="0" />
        <mxCell id="1" parent="0" />
        <mxCell id="fWniPlGqswo2AfZ_676z-3" value="" style="edgeStyle=orthogonalEdgeStyle;rounded=0;orthogonalLoop=1;jettySize=auto;html=1;entryX=0.5;entryY=0;entryDx=0;entryDy=0;" edge="1" parent="1" source="fWniPlGqswo2AfZ_676z-1" target="fWniPlGqswo2AfZ_676z-5">
          <mxGeometry relative="1" as="geometry">
            <mxPoint x="280" y="160" as="targetPoint" />
          </mxGeometry>
        </mxCell>
        <mxCell id="fWniPlGqswo2AfZ_676z-1" value="turnByDegree" style="shape=process;whiteSpace=wrap;html=1;backgroundOutline=1;" vertex="1" parent="1">
          <mxGeometry x="212.5" y="100" width="120" height="30" as="geometry" />
        </mxCell>
        <mxCell id="fWniPlGqswo2AfZ_676z-11" value="" style="edgeStyle=orthogonalEdgeStyle;rounded=0;orthogonalLoop=1;jettySize=auto;html=1;" edge="1" parent="1" source="fWniPlGqswo2AfZ_676z-5" target="fWniPlGqswo2AfZ_676z-10">
          <mxGeometry relative="1" as="geometry" />
        </mxCell>
        <mxCell id="fWniPlGqswo2AfZ_676z-25" style="edgeStyle=orthogonalEdgeStyle;rounded=0;orthogonalLoop=1;jettySize=auto;html=1;exitX=1;exitY=0.5;exitDx=0;exitDy=0;entryX=0.5;entryY=1;entryDx=0;entryDy=0;" edge="1" parent="1" source="fWniPlGqswo2AfZ_676z-5" target="fWniPlGqswo2AfZ_676z-24">
          <mxGeometry relative="1" as="geometry" />
        </mxCell>
        <mxCell id="fWniPlGqswo2AfZ_676z-5" value="While &lt;br&gt;turnsensorupdate function&lt;br&gt;isn&#39;t Degreeswanted&amp;nbsp;" style="rhombus;whiteSpace=wrap;html=1;" vertex="1" parent="1">
          <mxGeometry x="185" y="150" width="175" height="100" as="geometry" />
        </mxCell>
        <mxCell id="fWniPlGqswo2AfZ_676z-12" style="edgeStyle=orthogonalEdgeStyle;rounded=0;orthogonalLoop=1;jettySize=auto;html=1;exitX=0.5;exitY=1;exitDx=0;exitDy=0;entryX=0;entryY=0.5;entryDx=0;entryDy=0;" edge="1" parent="1" source="fWniPlGqswo2AfZ_676z-6" target="fWniPlGqswo2AfZ_676z-10">
          <mxGeometry relative="1" as="geometry" />
        </mxCell>
        <mxCell id="fWniPlGqswo2AfZ_676z-13" style="edgeStyle=orthogonalEdgeStyle;rounded=0;orthogonalLoop=1;jettySize=auto;html=1;exitX=0.5;exitY=0;exitDx=0;exitDy=0;entryX=0;entryY=0.5;entryDx=0;entryDy=0;" edge="1" parent="1" source="fWniPlGqswo2AfZ_676z-6" target="fWniPlGqswo2AfZ_676z-5">
          <mxGeometry relative="1" as="geometry" />
        </mxCell>
        <mxCell id="fWniPlGqswo2AfZ_676z-6" value="DegreesWanted" style="shape=parallelogram;perimeter=parallelogramPerimeter;whiteSpace=wrap;html=1;fixedSize=1;" vertex="1" parent="1">
          <mxGeometry x="80" y="240" width="120" height="30" as="geometry" />
        </mxCell>
        <mxCell id="fWniPlGqswo2AfZ_676z-15" value="" style="edgeStyle=orthogonalEdgeStyle;rounded=0;orthogonalLoop=1;jettySize=auto;html=1;" edge="1" parent="1" source="fWniPlGqswo2AfZ_676z-10" target="fWniPlGqswo2AfZ_676z-14">
          <mxGeometry relative="1" as="geometry" />
        </mxCell>
        <mxCell id="fWniPlGqswo2AfZ_676z-18" style="edgeStyle=orthogonalEdgeStyle;rounded=0;orthogonalLoop=1;jettySize=auto;html=1;exitX=1;exitY=0.5;exitDx=0;exitDy=0;entryX=0.5;entryY=0;entryDx=0;entryDy=0;" edge="1" parent="1" source="fWniPlGqswo2AfZ_676z-10" target="fWniPlGqswo2AfZ_676z-16">
          <mxGeometry relative="1" as="geometry" />
        </mxCell>
        <mxCell id="fWniPlGqswo2AfZ_676z-10" value="if DegreesWanted &amp;lt; 180" style="rhombus;whiteSpace=wrap;html=1;" vertex="1" parent="1">
          <mxGeometry x="185" y="280" width="175" height="60" as="geometry" />
        </mxCell>
        <mxCell id="fWniPlGqswo2AfZ_676z-22" style="edgeStyle=orthogonalEdgeStyle;rounded=0;orthogonalLoop=1;jettySize=auto;html=1;exitX=0.5;exitY=1;exitDx=0;exitDy=0;entryX=1;entryY=1;entryDx=0;entryDy=0;" edge="1" parent="1" source="fWniPlGqswo2AfZ_676z-14" target="fWniPlGqswo2AfZ_676z-5">
          <mxGeometry relative="1" as="geometry">
            <Array as="points">
              <mxPoint x="273" y="430" />
              <mxPoint x="490" y="430" />
              <mxPoint x="490" y="225" />
            </Array>
          </mxGeometry>
        </mxCell>
        <mxCell id="fWniPlGqswo2AfZ_676z-14" value="turn counterclockwise" style="shape=parallelogram;perimeter=parallelogramPerimeter;whiteSpace=wrap;html=1;fixedSize=1;" vertex="1" parent="1">
          <mxGeometry x="196.25" y="370" width="152.5" height="40" as="geometry" />
        </mxCell>
        <mxCell id="fWniPlGqswo2AfZ_676z-23" style="edgeStyle=orthogonalEdgeStyle;rounded=0;orthogonalLoop=1;jettySize=auto;html=1;exitX=0.5;exitY=1;exitDx=0;exitDy=0;entryX=1;entryY=1;entryDx=0;entryDy=0;" edge="1" parent="1" source="fWniPlGqswo2AfZ_676z-16" target="fWniPlGqswo2AfZ_676z-5">
          <mxGeometry relative="1" as="geometry">
            <Array as="points">
              <mxPoint x="420" y="410" />
              <mxPoint x="420" y="430" />
              <mxPoint x="490" y="430" />
              <mxPoint x="490" y="225" />
            </Array>
          </mxGeometry>
        </mxCell>
        <mxCell id="fWniPlGqswo2AfZ_676z-16" value="turn clockwise" style="shape=parallelogram;perimeter=parallelogramPerimeter;whiteSpace=wrap;html=1;fixedSize=1;" vertex="1" parent="1">
          <mxGeometry x="350" y="370" width="120" height="40" as="geometry" />
        </mxCell>
        <mxCell id="fWniPlGqswo2AfZ_676z-19" value="TRUE" style="text;html=1;strokeColor=none;fillColor=none;align=center;verticalAlign=middle;whiteSpace=wrap;rounded=0;" vertex="1" parent="1">
          <mxGeometry x="220" y="340" width="60" height="30" as="geometry" />
        </mxCell>
        <mxCell id="fWniPlGqswo2AfZ_676z-20" value="FALSE" style="text;html=1;strokeColor=none;fillColor=none;align=center;verticalAlign=middle;whiteSpace=wrap;rounded=0;" vertex="1" parent="1">
          <mxGeometry x="365" y="280" width="60" height="30" as="geometry" />
        </mxCell>
        <mxCell id="fWniPlGqswo2AfZ_676z-21" value="TRUE" style="text;html=1;strokeColor=none;fillColor=none;align=center;verticalAlign=middle;whiteSpace=wrap;rounded=0;" vertex="1" parent="1">
          <mxGeometry x="272.5" y="250" width="60" height="30" as="geometry" />
        </mxCell>
        <mxCell id="fWniPlGqswo2AfZ_676z-24" value="Return" style="ellipse;whiteSpace=wrap;html=1;aspect=fixed;" vertex="1" parent="1">
          <mxGeometry x="395" y="110" width="60" height="60" as="geometry" />
        </mxCell>
        <mxCell id="fWniPlGqswo2AfZ_676z-26" value="FALSE" style="text;html=1;strokeColor=none;fillColor=none;align=center;verticalAlign=middle;whiteSpace=wrap;rounded=0;" vertex="1" parent="1">
          <mxGeometry x="360" y="170" width="60" height="30" as="geometry" />
        </mxCell>
      </root>
    </mxGraphModel>
  </diagram>
</mxfile>
